<svg width="574" height="287" viewBox="0 0 574 287" fill="none" xmlns="http://www.w3.org/2000/svg">
<path d="M551.796 19.001H296.301V146.674H551.796V19.001Z" fill="#FBFBFB"/>
<path d="M266.926 262.462L272.977 260.719C274.051 257.94 274.967 255.103 275.721 252.221L272.879 252.118L275.977 251.225C276.874 247.652 277.242 245.229 277.242 245.229C277.242 245.229 264.969 248.883 255.726 256.012L254.586 264.007L253.495 257.86C252.49 258.752 251.541 259.706 250.655 260.717C241.757 270.941 237.885 282.133 242.007 285.716C246.128 289.298 256.682 283.915 265.58 273.691C268.333 270.371 270.561 266.649 272.186 262.654L266.926 262.462Z" fill="#E6E6E6"/>
<path d="M37.6638 226.034L34.2147 212.438C28.0988 209.848 21.8416 207.604 15.4729 205.718L15.0374 212.037L13.2714 205.076C5.37317 202.821 0 201.829 0 201.829C0 201.829 7.25795 229.412 22.4809 250.5L40.219 253.614L26.4387 255.6C28.3544 257.903 30.4132 260.083 32.6028 262.128C54.7479 282.672 79.4134 292.097 87.6947 283.18C95.976 274.264 84.7372 250.382 62.5921 229.839C55.7269 223.47 47.1028 218.359 38.47 214.337L37.6638 226.034Z" fill="#E6E6E6"/>
<path d="M70.4683 211.27L74.5476 197.849C70.6519 192.472 66.4559 187.319 61.9795 182.414L58.3386 187.598L60.4272 180.727C54.8318 174.717 50.7456 171.091 50.7456 171.091C50.7456 171.091 42.6924 198.453 44.8172 224.37L58.3913 236.199L45.5678 230.78C46.0165 233.741 46.6511 236.671 47.4679 239.553C55.8 268.579 72.0399 289.39 83.7408 286.035C95.4417 282.68 98.1726 256.43 89.8405 227.404C87.2574 218.406 82.5181 209.575 77.2084 201.672L70.4683 211.27Z" fill="#E6E6E6"/>
<path d="M202.039 267.45L200.614 273.856L190.643 273.144L191.356 266.026L202.039 267.45Z" fill="#FFB8B8"/>
<path d="M226.965 267.45L228.389 273.856L238.36 273.144L237.647 266.026L226.965 267.45Z" fill="#FFB8B8"/>
<path d="M229.814 59.6145C222.34 59.6145 216.282 53.5598 216.282 46.0909C216.282 38.6221 222.34 32.5674 229.814 32.5674C237.287 32.5674 243.345 38.6221 243.345 46.0909C243.345 53.5598 237.287 59.6145 229.814 59.6145Z" fill="#FFB8B8"/>
<path d="M238.36 49.6494L241.921 66.0203L224.116 71.7143L224.829 51.0734L238.36 49.6494Z" fill="#FFB8B8"/>
<path d="M231.95 68.1553L240.911 61.3754C240.911 61.3754 242.633 58.9024 243.345 61.0377C244.057 63.173 250.467 71.0024 250.467 71.0024L245.482 129.367L207.736 130.079C207.736 130.079 222.485 62.0415 224.369 64.3867C226.253 66.7319 231.238 66.7318 231.95 68.1553Z" fill="#D0CDE1"/>
<path d="M224.472 59.9697C224.472 59.9697 227.321 62.8168 225.897 64.9521C224.472 67.0874 225.541 71.0469 224.116 71.3804C222.692 71.7139 225.541 95.9139 221.268 102.32C216.995 108.726 219.131 125.096 219.131 127.943C219.131 130.79 214.858 147.873 214.858 147.873C214.858 147.873 200.614 149.296 200.614 145.738C200.614 142.179 205.6 117.267 205.6 117.267L201.327 73.1374C201.327 73.1374 201.327 68.8668 206.312 67.4433C211.297 66.0197 221.268 62.4609 221.268 62.4609L224.472 59.9697Z" fill="#2F2E41"/>
<path d="M204.175 111.573H207.736C207.736 111.573 226.253 112.997 224.828 105.168C223.404 97.3382 209.16 103.032 209.16 103.032L204.887 105.168L204.175 111.573Z" fill="#FFB8B8"/>
<path d="M240.344 58.7734C240.344 58.7734 246.194 62.4615 246.906 63.8851C247.618 65.3086 263.998 73.138 263.998 78.8322C263.998 84.5263 259.013 90.9322 259.013 90.9322L252.603 153.568C252.603 153.568 241.921 157.126 241.208 154.279C240.496 151.432 237.648 88.7969 239.072 85.9498C240.496 83.1027 240.496 64.5968 240.496 64.5968L240.344 58.7734Z" fill="#2F2E41"/>
<path d="M259.013 162.109L259.725 166.379C259.725 166.379 259.013 180.615 253.316 179.903C247.618 179.191 251.179 164.956 251.179 164.956L251.891 162.109H259.013Z" fill="#FFB8B8"/>
<path d="M250.467 125.809C250.467 125.809 249.755 189.868 246.194 210.509C242.633 231.15 241.209 266.739 241.209 266.739C241.209 266.739 231.95 268.162 230.526 268.874C229.102 269.586 225.541 267.451 225.541 267.451L224.828 162.109L211.297 209.797C211.297 209.797 209.16 267.45 204.887 268.874C200.614 270.298 187.795 267.451 187.795 267.451C187.795 267.451 192.78 212.645 194.205 210.509C195.629 208.374 199.19 145.739 204.887 134.35L207.024 126.521C207.024 126.521 247.618 127.944 250.467 125.809Z" fill="#2F2E41"/>
<path d="M199.902 271.009C199.902 271.009 203.463 268.162 203.463 270.297C203.463 272.432 207.024 285.6 202.751 285.6C198.478 285.6 169.99 288.091 170.703 282.397C171.415 276.703 188.552 267.61 188.552 267.61C188.552 267.61 194.917 269.585 195.629 270.297C196.341 271.009 199.902 271.009 199.902 271.009Z" fill="#2F2E41"/>
<path d="M229.101 271.009C229.101 271.009 225.54 268.162 225.54 270.297C225.54 272.432 221.979 285.6 226.252 285.6C230.526 285.6 259.013 288.091 258.301 282.397C257.589 276.703 240.451 267.61 240.451 267.61C240.451 267.61 234.087 269.585 233.374 270.297C232.662 271.009 229.101 271.009 229.101 271.009Z" fill="#2F2E41"/>
<path d="M206.311 72.4268L201.326 73.1385L191.356 101.609C191.356 101.609 188.507 115.844 192.78 117.98C197.053 120.115 205.118 119.698 205.118 119.698L206.311 103.744L202.75 104.456L206.311 97.3385V72.4268Z" fill="#2F2E41"/>
<path d="M260.437 75.9854L263.998 78.8324C263.998 78.8324 267.559 115.132 266.847 118.691C266.135 122.25 261.862 165.668 261.862 165.668L249.755 162.821L258.301 76.6971L260.437 75.9854Z" fill="#2F2E41"/>
<path d="M244.783 36.2614C244.783 36.2614 248.723 31.2666 244.783 28.7692V30.0179C244.783 30.0179 236.341 20.6526 231.276 23.1501L226.774 21.9014V23.1501L223.96 21.9014L224.522 23.7744H220.583L222.271 25.0231C222.271 25.0231 209.327 24.3988 217.206 33.764C217.206 33.764 213.461 39.379 217.022 42.5028C217.022 42.5028 220.02 35.637 223.96 37.5101C225.027 38.0638 226.231 38.2994 227.428 38.1887C228.625 38.078 229.766 37.6257 230.713 36.8857C230.713 36.8857 238.593 36.2614 237.467 40.0075C236.341 43.7536 236.904 45.0023 236.904 45.0023C236.904 45.0023 239.718 46.8753 239.155 48.124C238.592 49.3727 238.593 53.1188 238.593 53.1188C238.593 53.1188 241.407 48.7484 242.532 49.3727C243.658 49.9971 249.849 43.7536 244.783 36.2614Z" fill="#2F2E41"/>
<path d="M94.1215 257.312L92.663 275.039C92.663 275.039 108.272 284.058 103.264 285.806C98.2556 287.554 91.4004 285.305 89.9983 284.908C88.5175 284.488 85.7531 283.819 83.6613 283.324C82.6931 283.102 81.8215 282.576 81.1741 281.824C80.5267 281.071 80.1376 280.13 80.064 279.141L80.06 279.075C79.9339 276.894 84.858 257.939 84.858 257.939L94.1215 257.312Z" fill="#2F2E41"/>
<path d="M132.027 257.755L133.256 274.705C133.256 274.705 151.031 281.305 146.449 283.977C141.867 286.65 134.708 285.751 133.256 285.629C130.578 285.404 123.915 285.179 123.915 285.179C123.915 285.179 122.683 286.245 122.142 284.128C121.601 282.011 122.863 263.1 122.863 263.1L132.027 257.755Z" fill="#2F2E41"/>
<path d="M137.628 80.9652L107.682 81.7086L103.651 46.0225H137.628V80.9652Z" fill="#2F2E41"/>
<path d="M105.929 127.227L94.9985 202.969C94.9985 202.969 85.5252 229.915 84.7965 243.025L81.8816 261.96L94.9985 264.873L108.844 211.708L127.791 163.641L125.604 218.991L121.232 264.145L134.349 266.33L142.365 208.795L151.109 166.554C151.109 166.554 157.668 130.14 147.466 126.499L105.929 127.227Z" fill="#24CEDA"/>
<path d="M121.232 66.05C128.879 66.05 135.078 59.8547 135.078 52.2125C135.078 44.5702 128.879 38.375 121.232 38.375C113.586 38.375 107.387 44.5702 107.387 52.2125C107.387 59.8547 113.586 66.05 121.232 66.05Z" fill="#FFB8B8"/>
<path d="M113.217 60.2241L110.302 76.2466L122.69 82.0731L125.605 61.6811L113.217 60.2241Z" fill="#FFB8B8"/>
<path d="M111.759 135.966L127.062 146.891C127.062 146.891 133.62 163.641 138.721 160.728C143.822 157.815 132.892 143.249 132.892 143.249L120.503 130.868L111.759 135.966Z" fill="#FFB8B8"/>
<path d="M155.482 130.868L156.939 139.608C156.939 139.608 153.296 157.815 148.924 154.173C144.551 150.532 150.381 138.879 150.381 138.879L149.652 131.596L155.482 130.868Z" fill="#FFB8B8"/>
<path d="M121.232 77.7029L119.775 71.8766L111.03 67.5068L108.115 71.1483L98.642 74.0614L109.573 132.325C109.573 132.325 146.737 134.509 147.466 128.683C148.195 122.857 140.179 106.834 140.179 106.834C140.179 106.834 142.365 98.8232 141.636 94.4535L138.721 76.9746L127.062 73.3331L124.399 70.1135L121.961 74.0614L121.232 77.7029Z" fill="#D0CDE1"/>
<path d="M100.828 75.5186L98.6421 74.062C98.6421 74.062 94.2698 74.7903 92.8124 80.6166C91.355 86.4429 92.8124 112.661 96.456 117.759C100.1 122.857 110.302 138.151 110.302 138.151L124.147 131.597L109.573 114.846L105.929 93.7258L100.828 75.5186Z" fill="#D0CDE1"/>
<path d="M132.892 78.4322L138.721 76.9756C138.721 76.9756 142.365 78.4322 143.822 83.5302C145.28 88.6282 153.296 114.118 152.567 116.303C151.838 118.488 159.125 133.054 159.125 133.054L148.923 133.782L143.094 118.488L137.264 103.194L132.892 78.4322Z" fill="#D0CDE1"/>
<path d="M97.2352 65.3533C100.155 63.7508 101.514 60.154 101.611 56.8261C101.708 53.4983 100.9 50.2048 100.837 46.8761C100.804 46.1951 100.862 45.5128 101.009 44.8471C101.252 44.0208 101.629 43.2402 102.126 42.537C105.923 36.7222 112.524 32.6319 119.476 32.5676C120.48 32.5544 121.478 32.7376 122.412 33.107C123.131 33.3947 123.366 33.3594 123.503 34.2415C125.15 33.6985 126.936 33.7552 128.545 34.4017C130.139 35.0493 131.626 35.9341 132.955 37.0261C133.745 37.6131 134.49 38.2579 135.184 38.9551C138.858 42.7591 139.704 48.6219 138.64 53.801C138.294 55.4847 139.954 57.1102 141.328 58.1444C142.702 59.1786 144.288 60.1283 144.963 61.7095C145.612 63.2305 145.255 64.97 145.386 66.6183C145.533 68.1765 146.112 69.6627 147.059 70.9091C148.006 72.1556 149.283 73.1127 150.745 73.6724C150.447 74.0294 150.058 74.2993 149.619 74.4536C149.18 74.6079 148.707 74.6409 148.251 74.5491C147.298 74.3486 146.408 73.9247 145.651 73.3124C142.808 71.2065 140.773 68.1894 139.887 64.7649C139.484 66.5991 139.64 68.491 139.655 70.369C139.62 72.4647 140.006 74.5463 140.791 76.49C141.589 78.4431 143.051 80.0521 144.92 81.0338C143.118 81.9158 141.132 81.2766 139.605 79.9756C138.141 78.587 137.084 76.8261 136.546 74.8822C135.521 71.7792 135.106 68.5078 135.322 65.2474C133.646 68.0679 133.033 71.3943 133.595 74.6264C134.181 77.9218 135.903 80.9083 138.461 83.0684C134 83.0306 129.614 81.9265 125.667 79.8483C124.648 79.3867 123.75 78.6954 123.043 77.8286C121.773 76.068 122.074 73.6667 122.43 71.5257C122.712 69.8328 120.595 67.3854 121.807 66.1698C122.167 65.8142 122.648 65.6075 123.154 65.5911C124.977 65.4548 126.744 64.9014 128.319 63.9739C129.894 63.0463 131.234 61.7693 132.236 60.2416C133.634 58.141 134.428 55.6972 134.532 53.1765C134.531 51.3257 134.13 49.4969 133.357 47.8151C132.584 46.1333 131.456 44.6382 130.051 43.4321C128.647 42.2259 126.998 41.337 125.218 40.8262C123.438 40.3155 121.569 40.1948 119.738 40.4726C117.907 40.7503 116.157 41.4199 114.609 42.4355C113.061 43.4512 111.751 44.7889 110.767 46.3573C109.784 47.9257 109.151 49.6878 108.912 51.5232C108.673 53.3585 108.833 55.2238 109.382 56.9916C109.819 58.4142 110.132 59.8719 110.318 61.3484C110.538 63.0618 110.887 64.7561 111.362 66.4168C112.279 69.6083 113.833 72.8649 116.708 74.5296C115.703 74.9599 114.623 75.1885 113.529 75.2023C109.922 75.5996 106.128 75.5119 102.863 73.9285C99.5976 72.345 97.0026 68.973 97.2352 65.3533Z" fill="#2F2E41"/>
<path d="M105.107 51.2269C115.467 47.0769 125.681 46.1917 135.628 51.2269V42.8621C135.628 41.4172 135.054 40.0315 134.032 39.0098C133.009 37.9881 131.623 37.4141 130.177 37.4141H109.414C108.848 37.4141 108.288 37.5254 107.766 37.7417C107.243 37.958 106.768 38.275 106.368 38.6747C105.969 39.0743 105.651 39.5488 105.435 40.071C105.218 40.5932 105.107 41.1529 105.107 41.7181V51.2269Z" fill="#2F2E41"/>
<path d="M108.331 56.4065C109.174 56.4065 109.858 55.3132 109.858 53.9647C109.858 52.6162 109.174 51.5229 108.331 51.5229C107.487 51.5229 106.804 52.6162 106.804 53.9647C106.804 55.3132 107.487 56.4065 108.331 56.4065Z" fill="#FFB8B8"/>
<path d="M336.315 285.708H0V287.001H336.315V285.708Z" fill="#3F3D56"/>
<path d="M574 128.966H317.21V0H574V128.966ZM318.504 127.673H572.707V1.29276H318.504V127.673Z" fill="#3F3D56"/>
<path d="M444.861 104.901C444.86 106.964 444.247 108.979 443.099 110.694C441.952 112.408 440.321 113.744 438.414 114.533C436.508 115.321 434.409 115.527 432.385 115.124C430.361 114.722 428.502 113.728 427.043 112.27C425.584 110.811 424.59 108.953 424.187 106.931C423.784 104.908 423.99 102.811 424.779 100.905C425.568 98.9992 426.905 97.37 428.62 96.2232C430.335 95.0763 432.352 94.4635 434.416 94.462C435.789 94.4581 437.149 94.7255 438.418 95.2487C439.687 95.7719 440.84 96.5407 441.81 97.5108C442.781 98.481 443.55 99.6333 444.074 100.902C444.598 102.17 444.865 103.529 444.861 104.901Z" fill="#24CEDA"/>
<path opacity="0.3" d="M444.861 104.901C444.86 106.964 444.247 108.979 443.099 110.694C441.952 112.408 440.321 113.744 438.414 114.533C436.508 115.321 434.409 115.527 432.385 115.124C430.361 114.722 428.502 113.728 427.043 112.27C425.584 110.811 424.59 108.953 424.187 106.931C423.784 104.908 423.99 102.811 424.779 100.905C425.568 98.9992 426.905 97.37 428.62 96.2232C430.335 95.0763 432.352 94.4635 434.416 94.462C435.789 94.4581 437.149 94.7255 438.418 95.2487C439.687 95.7719 440.84 96.5407 441.81 97.5108C442.781 98.481 443.55 99.6333 444.074 100.902C444.598 102.17 444.865 103.529 444.861 104.901Z" fill="black"/>
<path d="M463.779 52.279C463.799 55.6905 463.096 59.0675 461.716 62.188C461.119 63.5312 460.402 64.8183 459.575 66.034C457.862 68.509 455.807 70.7288 453.47 72.6271C453.069 72.9632 452.629 73.3123 452.041 73.7647C451.303 74.3142 450.482 74.8894 449.538 75.51C447.87 76.5877 446.266 77.7596 444.732 79.0198C443.823 79.7284 443.034 80.5797 442.397 81.5407C441.602 82.9304 441.201 85.6194 441.201 89.5365V90.1828H423.764V87.1578C423.764 84.792 423.822 82.8012 423.932 81.0689C424.012 79.4991 424.176 77.9347 424.424 76.3826C424.595 75.0175 425.006 73.6934 425.64 72.472C426.785 70.5651 429.546 67.9732 434.074 64.5473C434.268 64.4051 434.462 64.2565 434.662 64.1078C434.85 63.9785 435.031 63.8428 435.218 63.7006C436.787 62.5872 438.231 61.3087 439.526 59.8869C439.904 59.4441 440.254 58.9778 440.574 58.4907L440.658 58.3615C441.671 56.5666 442.168 54.5262 442.093 52.4665C442.098 51.9453 442.064 51.4246 441.99 50.9087C441.789 48.8964 440.854 47.0283 439.364 45.66C437.747 44.1789 435.663 43.3099 433.472 43.2037C433.194 43.1779 432.935 43.1714 432.67 43.1714C431.639 43.1657 430.612 43.2873 429.611 43.5334C427.735 43.996 426.052 45.0361 424.799 46.5068C424.135 47.2899 423.57 48.1518 423.117 49.0729C421.589 52.5958 420.612 56.3324 420.22 60.1519L420.155 60.8306L403.74 56.4611V49.228C403.818 48.9372 403.902 48.6463 403.993 48.3619C405.041 44.7343 406.71 41.316 408.928 38.2589C409.875 36.9617 410.943 35.7562 412.116 34.6586C412.394 34.3806 412.698 34.1092 413.002 33.8441C414.977 32.1305 417.172 30.6871 419.528 29.5522L419.735 29.4552C424.198 27.3937 429.067 26.36 433.983 26.4301C434.494 26.4301 435.095 26.4366 435.69 26.4689C440.576 26.5927 445.37 27.8144 449.719 30.0434C451.671 31.0536 453.501 32.2855 455.171 33.7148C459.857 37.5323 462.874 43.0211 463.585 49.0211C463.715 50.1023 463.78 51.1902 463.779 52.279Z" fill="#24CEDA"/>
<path opacity="0.3" d="M463.779 52.279C463.799 55.6905 463.096 59.0675 461.716 62.188C461.119 63.5312 460.402 64.8183 459.575 66.034C457.862 68.509 455.807 70.7288 453.47 72.6271C453.069 72.9632 452.629 73.3123 452.041 73.7647C451.303 74.3142 450.482 74.8894 449.538 75.51C447.87 76.5877 446.266 77.7596 444.732 79.0198C443.823 79.7284 443.034 80.5797 442.397 81.5407C441.602 82.9304 441.201 85.6194 441.201 89.5365V90.1828H423.764V87.1578C423.764 84.792 423.822 82.8012 423.932 81.0689C424.012 79.4991 424.176 77.9347 424.424 76.3826C424.595 75.0175 425.006 73.6934 425.64 72.472C426.785 70.5651 429.546 67.9732 434.074 64.5473C434.268 64.4051 434.462 64.2565 434.662 64.1078C434.85 63.9785 435.031 63.8428 435.218 63.7006C436.787 62.5872 438.231 61.3087 439.526 59.8869C439.904 59.4441 440.254 58.9778 440.574 58.4907L440.658 58.3615C441.671 56.5666 442.168 54.5262 442.093 52.4665C442.098 51.9453 442.064 51.4246 441.99 50.9087C441.789 48.8964 440.854 47.0283 439.364 45.66C437.747 44.1789 435.663 43.3099 433.472 43.2037C433.194 43.1779 432.935 43.1714 432.67 43.1714C431.639 43.1657 430.612 43.2873 429.611 43.5334C427.735 43.996 426.052 45.0361 424.799 46.5068C424.135 47.2899 423.57 48.1518 423.117 49.0729C421.589 52.5958 420.612 56.3324 420.22 60.1519L420.155 60.8306L403.74 56.4611V49.228C403.818 48.9372 403.902 48.6463 403.993 48.3619C405.041 44.7343 406.71 41.316 408.928 38.2589C409.875 36.9617 410.943 35.7562 412.116 34.6586C412.394 34.3806 412.698 34.1092 413.002 33.8441C414.977 32.1305 417.172 30.6871 419.528 29.5522L419.735 29.4552C424.198 27.3937 429.067 26.36 433.983 26.4301C434.494 26.4301 435.095 26.4366 435.69 26.4689C440.576 26.5927 445.37 27.8144 449.719 30.0434C451.671 31.0536 453.501 32.2855 455.171 33.7148C459.857 37.5323 462.874 43.0211 463.585 49.0211C463.715 50.1023 463.78 51.1902 463.779 52.279Z" fill="black"/>
<path d="M437.747 104.901C437.746 106.964 437.132 108.979 435.985 110.694C434.837 112.408 433.207 113.744 431.3 114.533C429.393 115.321 427.295 115.527 425.271 115.124C423.247 114.722 421.388 113.728 419.929 112.27C418.47 110.811 417.476 108.953 417.073 106.931C416.67 104.908 416.876 102.811 417.665 100.905C418.454 98.9992 419.79 97.37 421.506 96.2232C423.221 95.0763 425.238 94.4635 427.302 94.462C428.675 94.4581 430.035 94.7255 431.304 95.2487C432.573 95.7719 433.726 96.5407 434.696 97.5108C435.667 98.481 436.436 99.6333 436.96 100.902C437.483 102.17 437.751 103.529 437.747 104.901Z" fill="#24CEDA"/>
<path d="M456.665 52.279C456.685 55.6905 455.981 59.0675 454.602 62.188C454.004 63.5312 453.288 64.8183 452.461 66.034C450.748 68.509 448.692 70.7288 446.355 72.6271C445.954 72.9632 445.515 73.3123 444.926 73.7647C444.189 74.3142 443.367 74.8894 442.423 75.51C440.756 76.5877 439.151 77.7596 437.618 79.0198C436.708 79.7284 435.92 80.5797 435.283 81.5407C434.487 82.9304 434.086 85.6194 434.086 89.5365V90.1828H416.65V87.1578C416.65 84.792 416.708 82.8012 416.818 81.0689C416.897 79.4991 417.061 77.9347 417.309 76.3826C417.48 75.0175 417.892 73.6934 418.525 72.472C419.67 70.5651 422.432 67.9732 426.959 64.5473C427.153 64.4051 427.347 64.2565 427.548 64.1078C427.735 63.9785 427.916 63.8428 428.104 63.7006C429.672 62.5872 431.116 61.3087 432.411 59.8869C432.79 59.4441 433.14 58.9778 433.459 58.4907L433.543 58.3615C434.557 56.5666 435.054 54.5262 434.979 52.4665C434.984 51.9453 434.949 51.4246 434.875 50.9087C434.674 48.8964 433.74 47.0283 432.25 45.66C430.633 44.1789 428.548 43.3099 426.358 43.2037C426.079 43.1779 425.821 43.1714 425.556 43.1714C424.525 43.1657 423.497 43.2873 422.496 43.5334C420.62 43.996 418.937 45.0361 417.685 46.5068C417.021 47.2899 416.456 48.1518 416.003 49.0729C414.839 51.3934 414.082 54.4702 413.752 58.2127L413.687 58.8915L395.229 56.2607L395.319 55.6207C395.644 53.1633 396.165 50.7359 396.878 48.3619C397.926 44.7343 399.596 41.316 401.813 38.2589C402.761 36.9617 403.828 35.7562 405.001 34.6586C405.28 34.3806 405.584 34.1092 405.888 33.8441C407.863 32.1305 410.057 30.6871 412.413 29.5522L412.62 29.4552C417.083 27.3937 421.952 26.36 426.868 26.4301C427.379 26.4301 427.981 26.4366 428.576 26.4689C433.461 26.5927 438.256 27.8144 442.604 30.0434C444.557 31.0536 446.386 32.2855 448.056 33.7148C452.742 37.5323 455.76 43.0211 456.471 49.0211C456.6 50.1023 456.665 51.1902 456.665 52.279Z" fill="#24CEDA"/>
</svg>
