<svg width="78" height="44" viewBox="0 0 78 44" fill="none" xmlns="http://www.w3.org/2000/svg">
<path d="M49.3165 37.4968H6.84372C6.59511 37.4965 6.35676 37.3972 6.18097 37.2206C6.00518 37.0441 5.90629 36.8046 5.90601 36.5549V11.7185C5.90628 11.4687 6.00517 11.2293 6.18096 11.0527C6.35676 10.8762 6.59511 10.7768 6.84372 10.7766H49.3165C49.5651 10.7768 49.8035 10.8762 49.9793 11.0527C50.1551 11.2293 50.2539 11.4687 50.2542 11.7185V36.5549C50.2539 36.8046 50.155 37.044 49.9793 37.2206C49.8035 37.3972 49.5651 37.4965 49.3165 37.4968Z" fill="#E6E6E6"/>
<path d="M51.9642 40.9727H4.19604V9.22514C4.19636 8.94604 4.30688 8.67846 4.50335 8.48111C4.69983 8.28375 4.96622 8.17274 5.24408 8.17242H50.9161C51.194 8.17274 51.4604 8.28375 51.6568 8.48111C51.8533 8.67846 51.9638 8.94604 51.9642 9.22514V40.9727ZM4.41668 40.7511H51.7435V9.22514C51.7433 9.00479 51.656 8.79354 51.5009 8.63773C51.3458 8.48193 51.1355 8.39429 50.9161 8.39405H5.24408C5.02471 8.39429 4.8144 8.48193 4.65928 8.63773C4.50417 8.79354 4.41692 9.00479 4.41668 9.22514V40.7511Z" fill="#CCCCCC"/>
<path d="M28.0802 10.0008C28.3239 10.0008 28.5215 9.8023 28.5215 9.55751C28.5215 9.31271 28.3239 9.11426 28.0802 9.11426C27.8365 9.11426 27.6389 9.31271 27.6389 9.55751C27.6389 9.8023 27.8365 10.0008 28.0802 10.0008Z" fill="#E6E6E6"/>
<path d="M38.7259 32.226H17.4343C17.1857 32.2257 16.9473 32.1263 16.7715 31.9498C16.5958 31.7732 16.4969 31.5338 16.4966 31.2841V16.9893C16.4969 16.7396 16.5958 16.5002 16.7715 16.3236C16.9473 16.147 17.1857 16.0477 17.4343 16.0474H38.7259C38.9745 16.0477 39.2128 16.1471 39.3886 16.3236C39.5644 16.5002 39.6633 16.7396 39.6636 16.9893V31.2841C39.6633 31.5338 39.5644 31.7732 39.3886 31.9498C39.2128 32.1263 38.9745 32.2257 38.7259 32.226Z" fill="white"/>
<path d="M20.937 22.1424C20.7624 22.1424 20.5918 22.0904 20.4467 21.993C20.3015 21.8956 20.1884 21.7572 20.1216 21.5952C20.0548 21.4332 20.0373 21.255 20.0714 21.083C20.1055 20.911 20.1895 20.7531 20.3129 20.6291C20.4364 20.5051 20.5936 20.4207 20.7648 20.3865C20.936 20.3523 21.1135 20.3698 21.2747 20.4369C21.436 20.504 21.5738 20.6176 21.6708 20.7634C21.7678 20.9092 21.8195 21.0806 21.8195 21.2559C21.8193 21.491 21.7262 21.7163 21.5608 21.8825C21.3953 22.0487 21.171 22.1422 20.937 22.1424Z" fill="#CCCCCC"/>
<path d="M20.937 25.0235C20.7624 25.0235 20.5918 24.9715 20.4467 24.8741C20.3015 24.7767 20.1884 24.6383 20.1216 24.4763C20.0548 24.3143 20.0373 24.1361 20.0714 23.9641C20.1055 23.7921 20.1895 23.6342 20.3129 23.5102C20.4364 23.3862 20.5936 23.3018 20.7648 23.2676C20.936 23.2334 21.1135 23.2509 21.2747 23.318C21.436 23.3851 21.5738 23.4987 21.6708 23.6445C21.7678 23.7903 21.8195 23.9617 21.8195 24.137C21.8193 24.3721 21.7262 24.5974 21.5608 24.7636C21.3953 24.9298 21.171 25.0233 20.937 25.0235Z" fill="#24CEDA"/>
<path d="M20.937 27.9046C20.7624 27.9046 20.5918 27.8526 20.4467 27.7552C20.3015 27.6578 20.1884 27.5193 20.1216 27.3573C20.0548 27.1953 20.0373 27.0171 20.0714 26.8451C20.1055 26.6732 20.1895 26.5152 20.3129 26.3912C20.4364 26.2673 20.5936 26.1828 20.7648 26.1486C20.936 26.1144 21.1135 26.132 21.2747 26.1991C21.436 26.2662 21.5738 26.3798 21.6708 26.5256C21.7678 26.6714 21.8195 26.8428 21.8195 27.0181C21.8193 27.2531 21.7262 27.4784 21.5608 27.6446C21.3953 27.8108 21.171 27.9043 20.937 27.9046Z" fill="#24CEDA"/>
<path d="M25.1292 20.5361C24.939 20.5361 24.7566 20.612 24.6221 20.7471C24.4877 20.8822 24.4121 21.0654 24.4121 21.2564C24.4121 21.4474 24.4877 21.6306 24.6221 21.7657C24.7566 21.9008 24.939 21.9767 25.1292 21.9767H35.3888C35.579 21.9767 35.7614 21.9008 35.8959 21.7657C36.0304 21.6306 36.1059 21.4474 36.1059 21.2564C36.1059 21.0654 36.0304 20.8822 35.8959 20.7471C35.7614 20.612 35.579 20.5361 35.3888 20.5361H25.1292Z" fill="#CCCCCC"/>
<path d="M25.1292 23.4172C24.939 23.4172 24.7566 23.4931 24.6221 23.6281C24.4877 23.7632 24.4121 23.9464 24.4121 24.1375C24.4121 24.3285 24.4877 24.5117 24.6221 24.6468C24.7566 24.7818 24.939 24.8577 25.1292 24.8577H35.3888C35.579 24.8577 35.7614 24.7818 35.8959 24.6468C36.0304 24.5117 36.1059 24.3285 36.1059 24.1375C36.1059 23.9464 36.0304 23.7632 35.8959 23.6281C35.7614 23.4931 35.579 23.4172 35.3888 23.4172H25.1292Z" fill="#24CEDA"/>
<path d="M25.1292 26.2983C24.939 26.2983 24.7566 26.3742 24.6221 26.5092C24.4877 26.6443 24.4121 26.8275 24.4121 27.0186C24.4121 27.2096 24.4877 27.3928 24.6221 27.5279C24.7566 27.6629 24.939 27.7388 25.1292 27.7388H35.3888C35.579 27.7388 35.7614 27.6629 35.8959 27.5279C36.0304 27.3928 36.1059 27.2096 36.1059 27.0186C36.1059 26.8275 36.0304 26.6443 35.8959 26.5092C35.7614 26.3742 35.579 26.2983 35.3888 26.2983H25.1292Z" fill="#24CEDA"/>
<path d="M73.3979 42.3664L72.0456 42.3435L71.4897 37.0934L73.4856 37.1271L73.3979 42.3664Z" fill="#FFB8B8"/>
<path d="M71.0862 41.9397L73.6942 41.9837L73.6666 43.6331L69.4165 43.5614C69.4201 43.3448 69.4662 43.131 69.5521 42.9323C69.6379 42.7336 69.7619 42.5538 69.917 42.4032C70.072 42.2526 70.2551 42.1342 70.4557 42.0547C70.6563 41.9751 70.8705 41.9361 71.0862 41.9397Z" fill="#2F2E41"/>
<path d="M59.9778 42.354L58.7241 41.8442L60.0849 36.7444L61.9352 37.4969L59.9778 42.354Z" fill="#FFB8B8"/>
<path d="M57.9737 41.1204L60.3915 42.1035L59.7753 43.6326L55.8352 42.0305C55.9986 41.625 56.3157 41.3013 56.7168 41.1306C57.1178 40.9599 57.57 40.9562 57.9737 41.1204Z" fill="#2F2E41"/>
<path d="M64.4981 22.7076L60.5266 33.2347L58.8718 40.5483L60.6369 41.4348L68.6902 25.6995L71.6688 41.4902H73.4339C73.4339 41.4902 74.241 22.7614 73.0652 21.2939L64.4981 22.7076Z" fill="#2F2E41"/>
<path d="M59.5744 34.2337C61.2909 34.2337 62.6823 32.836 62.6823 31.1119C62.6823 29.3878 61.2909 27.9901 59.5744 27.9901C57.858 27.9901 56.4666 29.3878 56.4666 31.1119C56.4666 32.836 57.858 34.2337 59.5744 34.2337Z" fill="#24CEDA"/>
<path d="M59.3155 32.493L58.3291 31.219L58.9028 30.7708L59.3697 31.374L60.9475 29.701L61.4752 30.2031L59.3155 32.493Z" fill="white"/>
<path d="M66.4286 8.13615C68.4392 8.13615 70.0691 6.49895 70.0691 4.47936C70.0691 2.45977 68.4392 0.822571 66.4286 0.822571C64.418 0.822571 62.7881 2.45977 62.7881 4.47936C62.7881 6.49895 64.418 8.13615 66.4286 8.13615Z" fill="#2F2E41"/>
<path d="M61.3479 29.3638C61.5031 29.2862 61.6394 29.1755 61.7473 29.0393C61.8551 28.9032 61.932 28.7449 61.9724 28.5756C62.0128 28.4064 62.0158 28.2303 61.9811 28.0598C61.9464 27.8893 61.875 27.7285 61.7717 27.5887L64.5334 12.2369L61.9563 12.2028L60.0385 27.3838C59.8163 27.5735 59.671 27.8386 59.6303 28.1287C59.5896 28.4189 59.6563 28.7139 59.8177 28.958C59.9791 29.202 60.224 29.3782 60.5061 29.4529C60.7881 29.5277 61.0876 29.496 61.348 29.3638H61.3479Z" fill="#FFB8B8"/>
<path d="M77.1733 26.3647C77.2706 26.2157 77.3334 26.0467 77.357 25.8701C77.3807 25.6935 77.3646 25.5138 77.3099 25.3443C77.2552 25.1748 77.1633 25.0198 77.041 24.8907C76.9188 24.7616 76.7692 24.6617 76.6034 24.5984L71.672 12.5664C71.5513 12.272 71.3682 12.0075 71.1354 11.7913C70.9026 11.5751 70.6257 11.4125 70.324 11.3147C70.0223 11.217 69.703 11.1864 69.3883 11.2252C69.0737 11.2639 68.7712 11.3711 68.502 11.5392L75.0335 25.3642C74.9493 25.6403 74.9674 25.9377 75.0844 26.2015C75.2014 26.4654 75.4093 26.6778 75.67 26.7997C75.9307 26.9215 76.2264 26.9446 76.5027 26.8647C76.7789 26.7847 77.0171 26.6072 77.1733 26.3647V26.3647Z" fill="#FFB8B8"/>
<path d="M66.5008 8.57838C67.9972 8.57838 69.2104 7.35985 69.2104 5.85672C69.2104 4.3536 67.9972 3.13507 66.5008 3.13507C65.0044 3.13507 63.7913 4.3536 63.7913 5.85672C63.7913 7.35985 65.0044 8.57838 66.5008 8.57838Z" fill="#FFB8B8"/>
<path d="M63.2059 10.1607C64.7687 9.50723 67.4668 8.86135 70.4627 10.2691C70.8133 10.4333 71.1254 10.67 71.3785 10.9639C71.6316 11.2578 71.8199 11.602 71.9312 11.9742L73.2131 16.2812L71.5584 17.9434L73.1028 21.3785C73.1028 21.3785 67.2008 24.9799 64.5531 22.7637L62.9535 17.0569L60.8574 16.5028L61.5725 12.2354C61.648 11.7791 61.8373 11.3494 62.123 10.9866C62.4086 10.6238 62.7812 10.3396 63.2059 10.1607Z" fill="#CCCCCC"/>
<path d="M63.9666 3.84443C65.0247 4.49327 66.2177 4.8881 67.4525 4.9982L67.0851 4.55595C67.3526 4.65531 67.6342 4.71147 67.9192 4.72232C68.0619 4.72648 68.2036 4.69697 68.3329 4.63618C68.4623 4.57538 68.5756 4.48499 68.6638 4.37225C68.7359 4.25518 68.7787 4.12233 68.7886 3.98505C68.7985 3.84776 68.7752 3.71011 68.7207 3.58382C68.6087 3.33194 68.4344 3.11303 68.2144 2.94793C67.8244 2.63805 67.3642 2.4299 66.8747 2.34202C66.3852 2.25415 65.8816 2.28928 65.4089 2.44429C65.0847 2.54163 64.7943 2.72874 64.571 2.98419C64.4612 3.11287 64.385 3.26691 64.3492 3.43248C64.3133 3.59806 64.3189 3.76999 64.3655 3.93284" fill="#2F2E41"/>
<path d="M63.4597 1.42295C63.4156 0.957535 62.848 0.67101 62.4041 0.811596C61.9602 0.952182 61.6688 1.40113 61.5807 1.86019C61.5383 2.05352 61.5343 2.25335 61.569 2.44823C61.6036 2.64311 61.6763 2.8292 61.7826 2.99584C61.8926 3.16036 62.0474 3.2897 62.2284 3.36848C62.4094 3.44727 62.6092 3.47218 62.8039 3.44027C63.2429 3.34627 63.5471 2.91569 63.6341 2.47337C63.7211 2.03105 63.6347 1.57503 63.5484 1.13256" fill="#2F2E41"/>
<path d="M70.9614 1.64432C70.9173 1.17891 70.3497 0.892385 69.9058 1.03297C69.4619 1.17356 69.1705 1.6225 69.0824 2.08156C69.04 2.27489 69.036 2.47472 69.0707 2.6696C69.1054 2.86448 69.178 3.05058 69.2844 3.21721C69.3944 3.38173 69.5491 3.51107 69.7301 3.58986C69.9111 3.66864 70.1109 3.69356 70.3056 3.66164C70.7446 3.56765 71.0488 3.13707 71.1358 2.69475C71.2228 2.25243 71.1364 1.7964 71.0501 1.35394" fill="#2F2E41"/>
<path d="M52.7916 39.5331H50.861V39.2007C50.861 39.0831 50.8145 38.9704 50.7318 38.8873C50.649 38.8041 50.5368 38.7574 50.4197 38.7574H48.103C47.986 38.7574 47.8738 38.8041 47.791 38.8873C47.7083 38.9704 47.6618 39.0831 47.6618 39.2007V39.5331H47.3308V39.2007C47.3308 39.0831 47.2843 38.9704 47.2016 38.8873C47.1188 38.8041 47.0066 38.7574 46.8895 38.7574H44.5728C44.4558 38.7574 44.3436 38.8041 44.2608 38.8873C44.178 38.9704 44.1316 39.0831 44.1316 39.2007V39.5331H43.8006V39.2007C43.8006 39.0831 43.7541 38.9704 43.6714 38.8873C43.5886 38.8041 43.4764 38.7574 43.3593 38.7574H41.0426C40.9256 38.7574 40.8134 38.8041 40.7306 38.8873C40.6478 38.9704 40.6014 39.0831 40.6014 39.2007V39.5331H40.2704V39.2007C40.2704 39.0831 40.2239 38.9704 40.1411 38.8873C40.0584 38.8041 39.9462 38.7574 39.8291 38.7574H37.5124C37.3954 38.7574 37.2831 38.8041 37.2004 38.8873C37.1176 38.9704 37.0711 39.0831 37.0711 39.2007V39.5331H36.7402V39.2007C36.7402 39.0831 36.6937 38.9704 36.6109 38.8873C36.5282 38.8041 36.4159 38.7574 36.2989 38.7574H33.9822C33.8652 38.7574 33.7529 38.8041 33.6702 38.8873C33.5874 38.9704 33.5409 39.0831 33.5409 39.2007V39.5331H33.21V39.2007C33.21 39.0831 33.1635 38.9704 33.0807 38.8873C32.998 38.8041 32.8857 38.7574 32.7687 38.7574H30.452C30.335 38.7574 30.2227 38.8041 30.14 38.8873C30.0572 38.9704 30.0107 39.0831 30.0107 39.2007V39.5331H29.6798V39.2007C29.6798 39.0831 29.6333 38.9704 29.5505 38.8873C29.4678 38.8041 29.3555 38.7574 29.2385 38.7574H26.9218C26.8048 38.7574 26.6925 38.8041 26.6098 38.8873C26.527 38.9704 26.4805 39.0831 26.4805 39.2007V39.5331H26.1496V39.2007C26.1496 39.0831 26.1031 38.9704 26.0203 38.8873C25.9376 38.8041 25.8253 38.7574 25.7083 38.7574H23.3916C23.2746 38.7574 23.1623 38.8041 23.0796 38.8873C22.9968 38.9704 22.9503 39.0831 22.9503 39.2007V39.5331H22.6194V39.2007C22.6194 39.0831 22.5729 38.9704 22.4901 38.8873C22.4074 38.8041 22.2951 38.7574 22.1781 38.7574H19.8614C19.7444 38.7574 19.6321 38.8041 19.5494 38.8873C19.4666 38.9704 19.4201 39.0831 19.4201 39.2007V39.5331H19.0892V39.2007C19.0892 39.0831 19.0427 38.9704 18.9599 38.8873C18.8772 38.8041 18.7649 38.7574 18.6479 38.7574H16.3312C16.2141 38.7574 16.1019 38.8041 16.0191 38.8873C15.9364 38.9704 15.8899 39.0831 15.8899 39.2007V39.5331H15.5589V39.2007C15.5589 39.0831 15.5125 38.9704 15.4297 38.8873C15.3469 38.8041 15.2347 38.7574 15.1177 38.7574H12.801C12.6839 38.7574 12.5717 38.8041 12.4889 38.8873C12.4062 38.9704 12.3597 39.0831 12.3597 39.2007V39.5331H12.0287V39.2007C12.0287 39.0831 11.9822 38.9704 11.8995 38.8873C11.8167 38.8041 11.7045 38.7574 11.5875 38.7574H9.27076C9.15373 38.7574 9.04149 38.8041 8.95874 38.8873C8.87598 38.9704 8.82949 39.0831 8.82949 39.2007V39.5331H8.49853V39.2007C8.49853 39.0831 8.45204 38.9704 8.36929 38.8873C8.28653 38.8041 8.17429 38.7574 8.05726 38.7574H5.74056C5.62352 38.7574 5.51128 38.8041 5.42853 38.8873C5.34577 38.9704 5.29928 39.0831 5.29928 39.2007V39.5331H3.36869C2.53483 39.5331 1.73512 39.8659 1.14549 40.4581C0.55586 41.0504 0.224609 41.8537 0.224609 42.6913V42.6913C0.224609 42.9411 0.323404 43.1807 0.499259 43.3573C0.675114 43.5339 0.913624 43.6332 1.16232 43.6332H54.998C55.2467 43.6332 55.4852 43.5339 55.661 43.3573C55.8369 43.1807 55.9357 42.9411 55.9357 42.6913V42.6913C55.9357 41.8537 55.6044 41.0504 55.0148 40.4581C54.4252 39.8659 53.6255 39.5331 52.7916 39.5331Z" fill="#3F3D56"/>
</svg>
