<svg width="78" height="45" viewBox="0 0 78 45" fill="none" xmlns="http://www.w3.org/2000/svg">
<path opacity="0.5" d="M19.5236 29.5206C14.848 27.9051 9.50196 26.5376 5.13355 28.8592C4.5799 29.1534 4.03436 29.5239 3.73605 30.0751C2.94813 31.5253 4.20053 33.4059 3.59014 34.9388C2.97975 36.4716 0.682467 37.2433 0.870529 38.8808C0.919977 39.3088 1.15181 39.6963 1.42499 40.0302C3.1362 42.1208 6.27328 42.3324 8.9248 41.8136C11.5763 41.2948 14.1695 40.2191 16.8688 40.3545C19.4628 40.4882 21.8492 41.7325 24.226 42.7798C28.2328 44.5502 32.9125 45.8205 36.9161 44.0412C38.7506 43.2257 40.2672 41.8371 42.023 40.8676C44.3892 39.5731 47.109 39.074 49.7806 39.4442C51.564 39.6955 53.2663 40.3277 55.0115 40.7638C58.9754 41.7536 63.1128 41.7212 67.1975 41.6823C67.9578 41.675 68.7304 41.6661 69.4591 41.4488C70.538 41.1246 71.4281 40.378 72.2849 39.6476C73.4108 38.6887 74.5968 37.6349 74.9599 36.2009C75.3887 34.4986 74.5011 32.6893 73.1847 31.5326C71.8682 30.3758 70.1854 29.7435 68.5431 29.134C68.1378 28.9848 67.7049 28.8332 67.2899 28.9459C67.0175 29.0205 66.7881 29.202 66.5846 29.3974C65.419 30.5193 64.4341 32.4169 62.8445 32.1122C62.277 32.0035 61.8126 31.6088 61.3635 31.244C58.9657 29.2985 55.7402 27.7964 52.8464 28.8713C50.7298 29.6576 49.2359 31.6769 47.091 32.3894C45.5654 32.8968 43.9077 32.6772 42.3027 32.776C39.9681 32.9187 37.696 33.7439 35.3581 33.6937C29.3969 33.5656 24.4302 27.8653 18.4933 28.4085C18.028 28.4506 17.5206 28.5576 17.2352 28.9256" fill="#24CEDA"/>
<path d="M12.0057 24.0984C12.0057 24.0984 7.05206 27.0888 16.1869 31.6947C16.1869 31.6947 18.1996 27.9578 15.9745 24.9107C15.5427 24.317 14.9081 23.9022 14.191 23.7451C13.4739 23.5879 12.7241 23.6992 12.0836 24.0579L12.0057 24.0984Z" fill="#24CEDA"/>
<path d="M12.0649 24.0358C12.0649 24.0358 16.3061 27.2783 16.1877 31.6921" stroke="#535461" stroke-miterlimit="10"/>
<path d="M74.6786 21.6081C75.6821 25.2778 71.4013 35.7323 71.4013 35.7323C71.4013 35.7323 62.3937 28.9125 61.3894 25.2429C61.1266 24.363 61.0424 23.4396 61.1417 22.5267C61.241 21.6138 61.5217 20.73 61.9674 19.9272C62.413 19.1244 63.0147 18.4187 63.737 17.8517C64.4593 17.2848 65.2876 16.8679 66.1733 16.6255C67.0589 16.3832 67.9841 16.3204 68.8945 16.4407C69.8048 16.561 70.6819 16.8621 71.4742 17.3262C72.2665 17.7903 72.958 18.4081 73.5082 19.1433C74.0583 19.8785 74.456 20.7162 74.6778 21.6073L74.6786 21.6081Z" fill="#24CEDA"/>
<path opacity="0.1" d="M74.6786 21.6081C75.6821 25.2778 71.4013 35.7323 71.4013 35.7323C71.4013 35.7323 62.3937 28.9125 61.3894 25.2429C61.1266 24.363 61.0424 23.4396 61.1417 22.5267C61.241 21.6138 61.5217 20.73 61.9674 19.9272C62.413 19.1244 63.0147 18.4187 63.737 17.8517C64.4593 17.2848 65.2876 16.8679 66.1733 16.6255C67.0589 16.3832 67.9841 16.3204 68.8945 16.4407C69.8048 16.561 70.6819 16.8621 71.4742 17.3262C72.2665 17.7903 72.958 18.4081 73.5082 19.1433C74.0583 19.8785 74.456 20.7162 74.6778 21.6073L74.6786 21.6081Z" fill="black"/>
<path d="M66.2529 16.8005C66.2529 16.8005 71.86 25.265 71.4409 35.7511" stroke="#535461" stroke-miterlimit="10"/>
<path d="M76.1092 28.3131C76.1092 28.3131 71.025 25.5473 71.6686 35.757C71.6686 35.757 75.9098 35.6054 77.4151 32.1457C77.7094 31.4728 77.7466 30.7153 77.5197 30.0168C77.2927 29.3184 76.8174 28.7274 76.1838 28.3561L76.1092 28.3131Z" fill="#24CEDA"/>
<path d="M76.1927 28.3327C76.1927 28.3327 75.5361 33.6325 71.6687 35.7587" stroke="#535461" stroke-miterlimit="10"/>
<path d="M1.67536 27.1755C1.67536 27.1755 -3.28074 30.165 5.8549 34.7685C5.8549 34.7685 7.86765 31.0316 5.64251 27.9844C5.21071 27.3907 4.57615 26.976 3.85905 26.8189C3.14194 26.6617 2.3921 26.773 1.75156 27.1317L1.67536 27.1755Z" fill="#24CEDA"/>
<path d="M1.73218 27.113C1.73218 27.113 5.97332 30.3555 5.85497 34.7693" stroke="#535461" stroke-miterlimit="10"/>
<path d="M63.5147 31.0683H58.3065C58.4264 30.8273 58.4885 30.5617 58.4881 30.2925V6.57719C58.4881 6.11475 58.3044 5.67125 57.9774 5.34425C57.6504 5.01726 57.2069 4.83356 56.7445 4.83356H16.4302C15.9677 4.83356 15.5242 5.01726 15.1972 5.34425C14.8702 5.67125 14.6865 6.11475 14.6865 6.57719V30.2934C14.6861 30.5625 14.7483 30.8281 14.8681 31.0691H9.47589C9.41512 31.0691 9.35494 31.0811 9.29882 31.1045C9.2427 31.1278 9.19175 31.162 9.14889 31.2051C9.10602 31.2482 9.0721 31.2993 9.04906 31.3555C9.02603 31.4118 9.01433 31.472 9.01465 31.5328V31.9049C9.01465 32.5889 9.28641 33.245 9.77014 33.7288C10.2539 34.2125 10.9099 34.4842 11.594 34.4842H61.3966C62.0807 34.4842 62.7368 34.2125 63.2205 33.7288C63.7042 33.245 63.976 32.5889 63.976 31.9049V31.5328C63.9764 31.4719 63.9648 31.4116 63.9418 31.3553C63.9188 31.2989 63.8849 31.2477 63.842 31.2045C63.7992 31.1614 63.7482 31.1271 63.692 31.1037C63.6358 31.0803 63.5756 31.0683 63.5147 31.0683ZM31.4233 32.5436L30.9742 32.037H42.0618L41.5673 32.5444L31.4233 32.5436Z" fill="url(#paint0_linear)"/>
<path d="M56.1049 5.16864H17.0657C16.0243 5.16864 15.1802 6.0128 15.1802 7.05413V29.8705C15.1802 30.9118 16.0243 31.756 17.0657 31.756H56.1049C57.1462 31.756 57.9904 30.9118 57.9904 29.8705V7.05413C57.9904 6.0128 57.1462 5.16864 56.1049 5.16864Z" fill="#535461"/>
<path d="M56.999 9.04535H16.0815V30.7658H56.999V9.04535Z" fill="white"/>
<path d="M36.5407 7.51161C36.7399 7.51161 36.9014 7.35011 36.9014 7.15089C36.9014 6.95166 36.7399 6.79016 36.5407 6.79016C36.3414 6.79016 36.1799 6.95166 36.1799 7.15089C36.1799 7.35011 36.3414 7.51161 36.5407 7.51161Z" fill="white"/>
<path d="M42.8578 30.8101L41.4522 32.2522H31.5416L30.2714 30.8101H10.0879C9.96838 30.8101 9.85374 30.8576 9.76922 30.9421C9.68469 31.0266 9.63721 31.1413 9.63721 31.2608V31.624C9.63721 32.2926 9.90281 32.9338 10.3756 33.4066C10.8484 33.8794 11.4896 34.145 12.1582 34.145H60.8324C61.1635 34.145 61.4913 34.0798 61.7972 33.9531C62.103 33.8264 62.3809 33.6407 62.615 33.4066C62.8491 33.1725 63.0348 32.8946 63.1615 32.5887C63.2882 32.2829 63.3534 31.955 63.3534 31.624V31.2608C63.3534 31.1413 63.3059 31.0266 63.2214 30.9421C63.1369 30.8576 63.0223 30.8101 62.9027 30.8101H42.8578Z" fill="#535461"/>
<path d="M21.3093 10.3961V28.8716H51.8614" stroke="#535461" stroke-width="2" stroke-miterlimit="10"/>
<path opacity="0.5" d="M27.1668 23.2841H24.0127V28.151H27.1668V23.2841Z" fill="#24CEDA"/>
<path opacity="0.7" d="M32.5745 18.9577H29.4204V28.1509H32.5745V18.9577Z" fill="#24CEDA"/>
<path opacity="0.5" d="M37.982 21.5723H34.8279V28.1512H37.982V21.5723Z" fill="#24CEDA"/>
<path opacity="0.8" d="M43.3895 17.5167H40.2354V28.152H43.3895V17.5167Z" fill="#24CEDA"/>
<path d="M48.7972 13.7311H45.6431V28.1512H48.7972V13.7311Z" fill="#24CEDA"/>
<path d="M25.5447 20.3114L31.0423 15.3544L36.4499 20.0406L41.7675 14.3631L47.1751 12.1096" stroke="#535461" stroke-width="2" stroke-miterlimit="10"/>
<path d="M25.5447 20.9412C25.893 20.9412 26.1754 20.6588 26.1754 20.3105C26.1754 19.9622 25.893 19.6799 25.5447 19.6799C25.1964 19.6799 24.9141 19.9622 24.9141 20.3105C24.9141 20.6588 25.1964 20.9412 25.5447 20.9412Z" fill="#24CEDA"/>
<path d="M36.3599 20.5801C36.7082 20.5801 36.9906 20.2977 36.9906 19.9494C36.9906 19.6011 36.7082 19.3188 36.3599 19.3188C36.0116 19.3188 35.7292 19.6011 35.7292 19.9494C35.7292 20.2977 36.0116 20.5801 36.3599 20.5801Z" fill="#24CEDA"/>
<path d="M41.8575 14.9942C42.2058 14.9942 42.4881 14.7118 42.4881 14.3635C42.4881 14.0152 42.2058 13.7328 41.8575 13.7328C41.5092 13.7328 41.2268 14.0152 41.2268 14.3635C41.2268 14.7118 41.5092 14.9942 41.8575 14.9942Z" fill="#24CEDA"/>
<path d="M31.0423 15.8935C31.3906 15.8935 31.6729 15.6111 31.6729 15.2628C31.6729 14.9145 31.3906 14.6321 31.0423 14.6321C30.694 14.6321 30.4116 14.9145 30.4116 15.2628C30.4116 15.6111 30.694 15.8935 31.0423 15.8935Z" fill="#24CEDA"/>
<path d="M47.1751 12.739C47.5234 12.739 47.8058 12.4566 47.8058 12.1083C47.8058 11.76 47.5234 11.4777 47.1751 11.4777C46.8268 11.4777 46.5444 11.76 46.5444 12.1083C46.5444 12.4566 46.8268 12.739 47.1751 12.739Z" fill="#24CEDA"/>
<path d="M70.6384 31.599C70.3061 31.4896 69.8132 31.3631 69.4225 31.4077C69.0504 31.2723 68.1758 30.9213 67.5783 30.3928C67.5956 29.8732 67.5823 29.3529 67.5386 28.8348C67.233 25.3597 67.9204 23.0689 67.9204 23.0689C67.9204 23.0689 68.4603 21.3212 68.4011 19.871C68.436 19.9367 68.4554 19.9756 68.4554 19.9756C68.5024 18.7248 68.9288 17.4303 69.2482 16.6237C69.2604 16.6202 69.2723 16.6159 69.2839 16.6108L69.6406 15.7645C69.669 15.7151 69.6915 15.6626 69.7078 15.608L69.7654 15.4743L69.7484 15.467C69.754 15.4451 69.7597 15.4216 69.7654 15.3981C69.9932 14.4342 70.1707 12.1483 70.1707 12.1483C70.7819 9.74241 69.3309 8.25736 69.3309 8.25736L66.8682 6.13841C66.8805 6.166 66.8887 6.19522 66.8926 6.22515L66.8723 6.20732C66.8374 6.10761 66.7993 5.98845 66.7621 5.85227C66.8489 5.7899 66.9303 5.7202 67.0052 5.64394C67.2852 5.37951 67.4778 5.03589 67.5573 4.65904C67.605 4.36434 67.6173 4.06498 67.5937 3.76737L67.5532 2.74518C67.5514 2.54513 67.531 2.34568 67.4924 2.14938C67.3068 1.33876 66.4759 0.771333 65.6418 0.734044C65.3764 0.732499 65.1111 0.746574 64.8474 0.776197C64.6317 0.793916 64.4151 0.798517 64.1989 0.789977C64.1743 0.791281 64.1499 0.784755 64.1292 0.771333C64.1104 0.752609 64.0997 0.727318 64.0992 0.700809C64.0949 0.653366 64.1003 0.605554 64.1151 0.560268C64.1299 0.514983 64.1537 0.473167 64.1851 0.437359C64.2177 0.408741 64.2558 0.386966 64.297 0.373321L64.2378 0.387101C64.267 0.364095 64.2999 0.346273 64.3351 0.334412C64.1189 0.372428 63.9109 0.447864 63.7206 0.557331C63.6682 0.591779 63.62 0.632321 63.5772 0.678112C63.4638 0.777569 63.3901 0.914567 63.3696 1.06397C63.2681 0.978217 63.1923 0.865971 63.1508 0.739719C63.1379 0.688094 63.1379 0.634085 63.1508 0.58246C63.1362 0.600293 63.1221 0.618666 63.1086 0.637581C63.1086 0.631907 63.1086 0.626233 63.1086 0.620559C62.952 0.813115 62.8411 1.03874 62.7844 1.2804C62.7625 1.25423 62.7462 1.22398 62.7361 1.19142C62.7261 1.15885 62.7227 1.12462 62.726 1.09072C62.7138 1.12881 62.7025 1.16691 62.692 1.20501C62.6883 1.17975 62.6883 1.15408 62.692 1.12881C62.5965 1.42105 62.5534 1.72786 62.5647 2.03508C62.5647 2.34149 62.7009 2.81895 63.0292 2.92676C63.0462 2.93243 63.0632 2.93649 63.0811 2.94054C62.8964 3.22735 62.7859 3.55549 62.7592 3.89555C62.7326 4.23561 62.7908 4.57695 62.9286 4.88899C63.0664 5.20102 63.2795 5.47399 63.5487 5.68342C63.8179 5.89285 64.1349 6.03219 64.4713 6.08897C64.4767 6.12626 64.4818 6.16544 64.4867 6.20651H64.4996C64.5085 6.28757 64.5158 6.37674 64.5207 6.46752C64.4379 6.5487 64.3472 6.62147 64.25 6.68477C63.9744 6.84769 63.6669 6.94943 63.3486 6.98308C62.9684 7.01291 62.5989 7.12344 62.2648 7.30732C61.8716 7.527 61.4379 7.84719 61.3018 8.23629C61.0748 8.88478 59.8248 9.89399 58.9866 10.0196L58.6883 10.0026L58.6664 9.99613V10.0018L58.5935 9.99775H58.5894H58.57V10.0018L58.4946 9.99775C58.4946 9.99775 58.4873 10.0326 58.4768 10.0942C58.0552 9.94912 57.1595 9.54705 55.9938 8.4892C54.6969 7.31138 52.9419 7.54321 52.265 7.69155C52.242 7.69663 52.2211 7.70862 52.205 7.7259C52.189 7.74319 52.1786 7.76495 52.1752 7.7883C52.1719 7.81164 52.1758 7.83545 52.1863 7.85654C52.1968 7.87764 52.2135 7.89502 52.2342 7.90637C52.5074 8.05633 52.9305 8.27439 53.1259 8.2987C53.1259 8.2987 52.7206 8.72266 53.1518 8.9472C53.2036 8.97221 53.2612 8.98249 53.3184 8.97692C53.3756 8.97134 53.4301 8.95012 53.4761 8.91558C53.6852 8.76237 54.2664 9.10932 55.1087 9.29008C55.1087 9.29008 57.4854 11.7495 58.6656 12.1272C58.6928 12.1809 58.7229 12.2332 58.7556 12.2837L58.8286 12.278V12.2837H58.8594L58.8683 12.3647C58.8683 12.3647 60.7035 12.2683 61.3001 11.602C61.3424 11.5641 61.3812 11.5226 61.416 11.4779L60.7781 19.503H60.7838L60.7781 19.5792H61.2474C61.2876 20.5662 61.245 21.5548 61.1202 22.5347V27.7664C61.1202 27.7664 61.0959 28.2269 62.0524 28.9013C63.0553 29.5995 64.0217 30.3487 64.9479 31.1459L65.0638 31.2464C64.8879 32.8474 64.5199 35.8312 64.2127 35.9423L64.4024 35.9755C64.0781 36.3865 63.1573 37.5157 62.8768 37.5457C62.5331 37.5838 62.3037 38.1188 62.8768 38.2331C64.0211 38.4312 65.1977 38.3152 66.2814 37.8975C66.3894 37.8549 66.4801 37.7772 66.5389 37.677C66.5977 37.5768 66.6211 37.4598 66.6056 37.3447L66.4946 36.5016C66.5156 36.5133 66.5325 36.5311 66.5432 36.5527C66.6194 36.7821 66.5432 36.2471 66.5432 36.2471C66.8572 35.2378 67.1039 34.2087 67.2817 33.1668L68.4165 34.1476C68.4165 34.1476 68.4392 34.1192 68.4789 34.0665C68.757 34.6972 69.2531 35.9877 69.142 36.9329C68.9896 38.2299 70.439 37.0853 70.2874 36.3217C70.1642 35.704 70.7154 33.0857 70.9302 32.1065C70.9534 32.0007 70.9363 31.8902 70.8824 31.7964C70.8284 31.7025 70.7414 31.6322 70.6384 31.599Z" fill="url(#paint1_linear)"/>
<path d="M58.7783 10.4154C58.7783 10.4154 57.6969 10.229 56.0935 8.77476C54.8249 7.6245 53.1137 7.85066 52.4539 7.99576C52.4314 8.00062 52.4109 8.01224 52.3952 8.02907C52.3796 8.0459 52.3694 8.06713 52.3661 8.0899C52.3629 8.11267 52.3666 8.13589 52.377 8.15645C52.3873 8.17701 52.4037 8.19392 52.4239 8.2049C52.6906 8.35081 53.104 8.564 53.2977 8.58832C53.2977 8.58832 52.8981 9.00173 53.3228 9.22303C53.3737 9.24801 53.4305 9.25836 53.4869 9.25292C53.5433 9.24748 53.5971 9.22646 53.6422 9.19223C53.8465 9.04307 54.4139 9.38191 55.2367 9.55781C55.2367 9.55781 58.4435 12.8765 59.1893 12.3139L58.7783 10.4154Z" fill="#FEC3BE"/>
<path d="M64.2993 5.90308C64.2993 5.90308 64.5976 7.17088 64.2993 8.0658L65.6417 8.25224L66.8349 7.65563V6.87257C66.8349 6.87257 66.2756 5.67935 66.4248 4.29968L64.2993 5.90308Z" fill="#FEC3BE"/>
<path d="M68.1003 33.3834C68.1003 33.3834 69.0731 35.2851 68.9207 36.5529C68.7683 37.8207 70.1885 36.7021 70.0393 35.9563C69.9186 35.3532 70.4568 32.7949 70.6667 31.8432C70.6895 31.7404 70.6732 31.6328 70.6211 31.5413C70.569 31.4497 70.4847 31.3808 70.3847 31.348C69.9364 31.2004 69.1858 31.0197 68.8088 31.2961C68.2519 31.7054 68.1003 33.3834 68.1003 33.3834Z" fill="#8B416F"/>
<path d="M64.4114 35.4714C64.4114 35.4714 63.1436 37.1121 62.808 37.1494C62.4724 37.1867 62.2486 37.7087 62.808 37.8206C63.9248 38.015 65.0733 37.9029 66.1315 37.4963C66.2374 37.455 66.3263 37.3794 66.3841 37.2815C66.4419 37.1836 66.4651 37.0691 66.4501 36.9565L66.2361 35.3596L64.4114 35.4714Z" fill="#8B416F"/>
<path d="M62.3231 18.0575L61.1072 18.2196C61.2741 19.6398 61.2692 21.075 61.0926 22.494V27.6009C61.0926 27.6009 61.0691 28.0508 62.0029 28.7049C62.9821 29.3857 63.9259 30.1162 64.8303 30.8936L68.2138 33.8248C68.2138 33.8248 69.5562 32.1841 69.3698 31.2146C69.3698 31.2146 67.1325 30.5061 66.8342 29.3502C66.6631 28.6887 65.7958 28.1342 65.0857 27.7857C64.6393 27.5689 64.2805 27.2059 64.0689 26.7571C63.8573 26.3082 63.8056 25.8005 63.9224 25.3182C63.9639 25.1506 64.028 24.9894 64.1129 24.8391C64.7095 23.795 65.5672 21.4459 65.5672 21.4459L63.9265 18.3185L62.3231 18.0575Z" fill="#4D4981"/>
<path opacity="0.05" d="M62.3231 18.0575L61.1072 18.2196C61.2741 19.6398 61.2692 21.075 61.0926 22.494V27.6009C61.0926 27.6009 61.0691 28.0508 62.0029 28.7049C62.9821 29.3857 63.9259 30.1162 64.8303 30.8936L68.2138 33.8248C68.2138 33.8248 69.5562 32.1841 69.3698 31.2146C69.3698 31.2146 67.1325 30.5061 66.8342 29.3502C66.6631 28.6887 65.7958 28.1342 65.0857 27.7857C64.6393 27.5689 64.2805 27.2059 64.0689 26.7571C63.8573 26.3082 63.8056 25.8005 63.9224 25.3182C63.9639 25.1506 64.028 24.9894 64.1129 24.8391C64.7095 23.795 65.5672 21.4459 65.5672 21.4459L63.9265 18.3185L62.3231 18.0575Z" fill="black"/>
<path d="M64.1131 35.5853C64.1131 35.5853 66.3131 35.9582 66.3877 36.1819C66.4622 36.4057 66.3877 35.8836 66.3877 35.8836C66.3877 35.8836 67.6555 32.0429 67.3604 28.6505C67.0653 25.2581 67.7333 23.02 67.7333 23.02C67.7333 23.02 68.5163 20.4844 68.0689 19.0301C67.6214 17.5759 62.9231 18.2098 62.9231 18.2098C62.9231 18.2098 64.5638 22.0505 64.5265 23.8776C64.5265 23.8776 64.7129 29.3963 65.0485 30.0302C65.0453 30.0269 64.5232 35.4337 64.1131 35.5853Z" fill="#4D4981"/>
<path d="M64.3716 6.87262C64.3716 6.87262 64.5953 8.25067 66.8326 7.65568L65.3443 18.9905C65.3443 18.9905 61.0189 19.1397 61.0561 18.6176L61.9478 11.7574L64.3716 6.87262Z" fill="white"/>
<path opacity="0.1" d="M64.4301 6.79883C64.1387 7.08565 63.7592 7.26585 63.3527 7.31033C62.9815 7.33878 62.6206 7.446 62.2941 7.62485C61.9107 7.83966 61.4835 8.15175 61.3538 8.53192C61.0928 9.27769 59.4521 10.5082 58.7063 10.2472L58.9673 12.4845C58.9673 12.4845 61.0928 12.3726 61.4656 11.5523L60.8325 19.536H61.3919C61.3919 19.536 61.6902 17.3733 61.9139 16.9258C62.1376 16.4784 62.5851 14.0174 62.6224 13.4207C62.6597 12.8241 63.219 9.39361 63.7037 8.80024L64.4333 7.02904L64.4301 6.79883Z" fill="black"/>
<path opacity="0.1" d="M64.4298 6.90991C64.0966 7.17058 63.6981 7.33462 63.278 7.38412C62.9069 7.41319 62.5463 7.52096 62.2201 7.70026C61.8367 7.91507 61.4095 8.22716 61.2798 8.60734C61.0188 9.35311 59.3781 10.5836 58.6323 10.3226L58.8933 12.5599C58.8933 12.5599 61.0188 12.448 61.3917 11.6277L60.7578 19.6066H61.3171C61.3171 19.6066 61.6154 17.4439 61.8391 16.9964C62.0628 16.5489 62.5103 14.0879 62.5476 13.4913C62.5849 12.8947 63.1442 9.46416 63.629 8.87079L64.4298 7.13283V6.90991Z" fill="black"/>
<path d="M64.4299 6.83612C64.0967 7.09679 63.6982 7.26083 63.278 7.31033C62.9068 7.33878 62.5459 7.446 62.2194 7.62485C61.836 7.83966 61.4088 8.15175 61.2791 8.53193C61.018 9.27769 59.3774 10.5082 58.6316 10.2472L58.8926 12.4845C58.8926 12.4845 61.018 12.3726 61.3909 11.5523L60.7578 19.536H61.3172C61.3172 19.536 61.6155 17.3733 61.8392 16.9258C62.0629 16.4784 62.5104 14.0174 62.5477 13.4207C62.585 12.8241 63.1443 9.39361 63.629 8.80024L64.4307 7.06634L64.4299 6.83612Z" fill="#FD6F8D"/>
<path opacity="0.1" d="M66.3315 5.39982C66.2829 5.04639 66.3802 4.82591 66.4248 4.41168L64.2993 6.01508C64.2993 6.01508 64.3504 6.23151 64.3893 6.54846C64.4965 6.56578 64.6049 6.57446 64.7135 6.5744C65.4512 6.5744 65.9822 5.99806 66.3315 5.39982Z" fill="black"/>
<path d="M64.7096 6.46396C65.8217 6.46396 66.7232 5.56246 66.7232 4.4504C66.7232 3.33833 65.8217 2.43683 64.7096 2.43683C63.5975 2.43683 62.696 3.33833 62.696 4.4504C62.696 5.56246 63.5975 6.46396 64.7096 6.46396Z" fill="#FEC3BE"/>
<path opacity="0.1" d="M62.5121 2.47551C62.4992 2.13594 62.5543 1.79722 62.6742 1.47927C62.6409 1.52929 62.6268 1.58968 62.6346 1.64928C62.6423 1.70888 62.6714 1.76367 62.7164 1.80351C62.7813 1.45698 62.9592 1.14172 63.2222 0.906972C63.0787 0.93048 63.005 1.108 63.0406 1.24905C63.0891 1.38682 63.1753 1.50817 63.2895 1.59924C63.2773 1.38605 63.4184 1.18664 63.5967 1.06991C63.7825 0.963177 63.9855 0.889661 64.1966 0.852661C64.1242 0.87835 64.0624 0.927272 64.0207 0.991793C63.9791 1.05631 63.9599 1.1328 63.9663 1.20933C63.967 1.23533 63.9777 1.26006 63.9963 1.27823C64.0166 1.29119 64.0404 1.29743 64.0644 1.29607C64.2745 1.30416 64.4848 1.29956 64.6943 1.28229C64.9518 1.2533 65.2109 1.2395 65.47 1.24095C66.2806 1.27499 67.0953 1.82864 67.2769 2.61899C67.3145 2.81076 67.3343 3.0056 67.3361 3.20101L67.3758 4.19888C67.3989 4.49 67.3869 4.78284 67.3401 5.0711C67.284 5.33722 67.1698 5.58767 67.0057 5.80457C66.8416 6.02148 66.6317 6.1995 66.3909 6.32593C66.0983 5.90198 66.0723 5.35725 65.971 4.85223C65.955 4.73569 65.9117 4.62458 65.8445 4.52799C65.8099 4.48023 65.7612 4.44443 65.7053 4.42554C65.6494 4.40666 65.589 4.40564 65.5324 4.42261C65.423 4.46638 65.376 4.63337 65.4668 4.70795C65.3857 4.8036 65.2341 4.73226 65.1425 4.64715C64.8867 4.40448 64.7106 4.08987 64.6375 3.74494C64.6011 3.57146 64.5646 3.35746 64.3943 3.29829C64.3358 3.28219 64.2746 3.27806 64.2144 3.28613C63.8593 3.31045 63.3041 3.45717 62.9604 3.34449C62.645 3.24154 62.5121 2.77463 62.5121 2.47551Z" fill="black"/>
<path d="M62.5492 2.43901C62.5363 2.09944 62.5914 1.76072 62.7113 1.44277C62.678 1.49279 62.6639 1.55318 62.6717 1.61278C62.6794 1.67238 62.7085 1.72717 62.7535 1.76701C62.8184 1.42048 62.9963 1.10522 63.2593 0.870473C63.1158 0.893981 63.0421 1.07151 63.0777 1.21255C63.1262 1.35032 63.2124 1.47167 63.3266 1.56274C63.3144 1.34955 63.4555 1.15013 63.6338 1.03341C63.8196 0.926677 64.0226 0.853162 64.2337 0.816162C64.1613 0.841851 64.0995 0.890773 64.0578 0.955294C64.0162 1.01981 63.9971 1.09631 64.0034 1.17283C64.0041 1.19883 64.0148 1.22356 64.0334 1.24174C64.0537 1.25469 64.0775 1.26093 64.1015 1.25957C64.3116 1.26766 64.5219 1.26306 64.7314 1.24579C64.9889 1.2168 65.248 1.203 65.5071 1.20445C66.3178 1.23849 67.1324 1.79214 67.314 2.58249C67.3516 2.77426 67.3714 2.9691 67.3732 3.16451L67.4129 4.16238C67.436 4.4535 67.424 4.74634 67.3772 5.0346C67.3211 5.30072 67.2069 5.55117 67.0428 5.76807C66.8787 5.98498 66.6688 6.163 66.428 6.28943C66.1354 5.86548 66.1094 5.32075 66.0081 4.81574C65.9921 4.69919 65.9488 4.58809 65.8816 4.49149C65.847 4.44373 65.7983 4.40793 65.7424 4.38905C65.6865 4.37017 65.6261 4.36914 65.5696 4.38611C65.4601 4.42988 65.4131 4.59687 65.5039 4.67145C65.4228 4.7671 65.2712 4.69577 65.1796 4.61065C64.9238 4.36798 64.7477 4.05337 64.6746 3.70844C64.6382 3.53496 64.6017 3.32096 64.4315 3.26179C64.3729 3.24569 64.3117 3.24156 64.2515 3.24963C63.8964 3.27395 63.3412 3.42067 62.9975 3.30799C62.6821 3.20423 62.5492 2.73813 62.5492 2.43901Z" fill="#784F69"/>
<path opacity="0.1" d="M58.5353 10.2476C58.5353 10.2476 58.237 11.6257 58.7963 12.4849L59.1132 12.459L58.9406 10.2703L58.5353 10.2476Z" fill="black"/>
<path d="M58.6161 10.2476C58.6161 10.2476 58.3178 11.6257 58.8771 12.4849L59.1941 12.459L59.0214 10.2703L58.6161 10.2476Z" fill="#FD6F8D"/>
<path opacity="0.1" d="M66.6299 6.48547L69.035 8.55497C69.035 8.55497 70.452 10.0092 69.8554 12.3584C69.8554 12.3584 69.5944 15.7889 69.2961 15.9381C69.2961 15.9381 68.252 18.0262 68.1774 20.0025C68.1774 20.0025 66.7791 17.1872 66.1452 18.9025C65.5113 20.6177 64.0376 20.8601 64.0376 20.8601L64.8579 10.7145C64.8579 10.7145 66.9282 7.11613 66.6299 6.48547Z" fill="black"/>
<path d="M66.7044 6.48547L69.1095 8.55497C69.1095 8.55497 70.5265 10.0092 69.9298 12.3584C69.9298 12.3584 69.6688 15.7889 69.3705 15.9381C69.3705 15.9381 68.3264 18.0262 68.2519 20.0025C68.2519 20.0025 66.779 17.0381 66.1443 18.7533C65.5096 20.4686 64.1121 20.8609 64.1121 20.8609L64.9324 10.7193C64.9324 10.7193 67.0027 7.11613 66.7044 6.48547Z" fill="#FD6F8D"/>
<path d="M67.8047 15.2264C67.8047 15.2264 68.4013 14.8163 69.3708 15.9349L66.9843 20.2604L66.1826 19.0501C66.1826 19.0501 67.8792 15.7112 67.8047 15.2264Z" fill="#FEC3BE"/>
<path opacity="0.1" d="M67.2266 15.4683C67.2266 15.4683 68.5462 16.9501 69.061 16.7126L69.5376 15.6029L67.7486 14.8344L67.2266 15.4683Z" fill="black"/>
<path d="M67.2266 15.3928C67.2266 15.3928 68.5462 16.8746 69.061 16.6371L69.5376 15.5274L67.7486 14.7589L67.2266 15.3928Z" fill="#FD6F8D"/>
<path opacity="0.1" d="M66.2636 18.7658C66.2636 18.7658 66.8918 20.0531 67.2266 20.1276L66.7402 20.687L66.0317 19.3446L66.2636 18.7658Z" fill="black"/>
<path d="M66.2264 18.8066C66.2264 18.8066 66.8546 20.0939 67.1894 20.1685L66.703 20.7278L65.9929 19.383L66.2264 18.8066Z" fill="#4D4981"/>
<path opacity="0.1" d="M67.4129 10.8439C67.4129 10.8439 67.4875 13.5287 67.1892 14.5355L67.4129 10.8439Z" fill="black"/>
<path opacity="0.1" d="M61.3723 11.366C61.3723 11.366 61.8198 11.2168 61.8198 10.8439L61.3723 11.366Z" fill="black"/>
<path d="M7.03604 11.8153C7.03604 11.8153 4.91061 16.2121 6.30649 21.4154C7.70237 26.6188 7.25896 32.8451 5.86713 34.3853" stroke="#535461" stroke-width="2" stroke-miterlimit="10"/>
<path d="M7.03603 12.4024C7.35971 12.4024 7.6221 12.14 7.6221 11.8163C7.6221 11.4926 7.35971 11.2302 7.03603 11.2302C6.71235 11.2302 6.44995 11.4926 6.44995 11.8163C6.44995 12.14 6.71235 12.4024 7.03603 12.4024Z" fill="#24CEDA"/>
<path d="M6.15234 14.6425C6.15234 14.6425 8.3556 15.0397 8.94167 14.2372" stroke="#535461" stroke-width="2" stroke-miterlimit="10"/>
<path d="M5.94329 15.9199C5.94329 15.9199 4.61794 14.4535 4.69089 13.574" stroke="#535461" stroke-width="2" stroke-miterlimit="10"/>
<path d="M5.83057 18.6066C5.83057 18.6066 7.03595 18.9244 8.13595 16.5801" stroke="#535461" stroke-width="2" stroke-miterlimit="10"/>
<path d="M6.15238 20.5608C6.15238 20.5608 3.1531 18.6307 3.51869 17.3856" stroke="#535461" stroke-width="2" stroke-miterlimit="10"/>
<path d="M6.62085 22.7693C6.62085 22.7693 8.72196 20.9049 8.50229 19.0705" stroke="#535461" stroke-width="2" stroke-miterlimit="10"/>
<path d="M6.84944 24.0673C6.84944 24.0673 4.17441 23.3199 4.25547 22.1478" stroke="#535461" stroke-width="2" stroke-miterlimit="10"/>
<path d="M7.03589 25.6156C7.03589 25.6156 8.72116 24.0543 8.94083 23.1027" stroke="#535461" stroke-width="2" stroke-miterlimit="10"/>
<path d="M7.15364 28.2697C7.15364 28.2697 5.4246 26.2513 5.35083 25.2259" stroke="#535461" stroke-width="2" stroke-miterlimit="10"/>
<path d="M7.15356 29.941C7.15356 29.941 9.0885 27.7912 9.23441 26.7658" stroke="#535461" stroke-width="2" stroke-miterlimit="10"/>
<path d="M4.69081 14.3069C5.01449 14.3069 5.27689 14.0445 5.27689 13.7208C5.27689 13.3972 5.01449 13.1348 4.69081 13.1348C4.36713 13.1348 4.10474 13.3972 4.10474 13.7208C4.10474 14.0445 4.36713 14.3069 4.69081 14.3069Z" fill="#24CEDA"/>
<path d="M4.03188 22.734C4.35556 22.734 4.61795 22.4716 4.61795 22.1479C4.61795 21.8242 4.35556 21.5618 4.03188 21.5618C3.7082 21.5618 3.4458 21.8242 3.4458 22.1479C3.4458 22.4716 3.7082 22.734 4.03188 22.734Z" fill="#24CEDA"/>
<path d="M3.51869 17.9701C3.84237 17.9701 4.10477 17.7077 4.10477 17.384C4.10477 17.0604 3.84237 16.798 3.51869 16.798C3.19501 16.798 2.93262 17.0604 2.93262 17.384C2.93262 17.7077 3.19501 17.9701 3.51869 17.9701Z" fill="#24CEDA"/>
<path d="M8.94179 14.8199C9.26547 14.8199 9.52786 14.5575 9.52786 14.2338C9.52786 13.9102 9.26547 13.6478 8.94179 13.6478C8.61811 13.6478 8.35571 13.9102 8.35571 14.2338C8.35571 14.5575 8.61811 14.8199 8.94179 14.8199Z" fill="#24CEDA"/>
<path d="M8.94179 23.8321C9.26547 23.8321 9.52786 23.5697 9.52786 23.246C9.52786 22.9223 9.26547 22.6599 8.94179 22.6599C8.61811 22.6599 8.35571 22.9223 8.35571 23.246C8.35571 23.5697 8.61811 23.8321 8.94179 23.8321Z" fill="#24CEDA"/>
<path d="M7.98915 17.1654C8.31283 17.1654 8.57523 16.903 8.57523 16.5794C8.57523 16.2557 8.31283 15.9933 7.98915 15.9933C7.66547 15.9933 7.40308 16.2557 7.40308 16.5794C7.40308 16.903 7.66547 17.1654 7.98915 17.1654Z" fill="#24CEDA"/>
<path d="M9.16151 27.7166C9.48519 27.7166 9.74759 27.4543 9.74759 27.1306C9.74759 26.8069 9.48519 26.5445 9.16151 26.5445C8.83783 26.5445 8.57544 26.8069 8.57544 27.1306C8.57544 27.4543 8.83783 27.7166 9.16151 27.7166Z" fill="#24CEDA"/>
<path d="M5.20399 26.1784C5.52767 26.1784 5.79007 25.916 5.79007 25.5924C5.79007 25.2687 5.52767 25.0063 5.20399 25.0063C4.88031 25.0063 4.61792 25.2687 4.61792 25.5924C4.61792 25.916 4.88031 26.1784 5.20399 26.1784Z" fill="#24CEDA"/>
<path d="M8.57533 19.6567C8.89901 19.6567 9.16141 19.3943 9.16141 19.0706C9.16141 18.747 8.89901 18.4846 8.57533 18.4846C8.25165 18.4846 7.98926 18.747 7.98926 19.0706C7.98926 19.3943 8.25165 19.6567 8.57533 19.6567Z" fill="#24CEDA"/>
<defs>
<linearGradient id="paint0_linear" x1="36.4953" y1="34.481" x2="36.4953" y2="4.83275" gradientUnits="userSpaceOnUse">
<stop stop-color="#808080" stop-opacity="0.25"/>
<stop offset="0.54" stop-color="#808080" stop-opacity="0.12"/>
<stop offset="1" stop-color="#808080" stop-opacity="0.1"/>
</linearGradient>
<linearGradient id="paint1_linear" x1="16535.1" y1="24458.9" x2="16535.1" y2="6651.73" gradientUnits="userSpaceOnUse">
<stop stop-color="#808080" stop-opacity="0.25"/>
<stop offset="0.54" stop-color="#808080" stop-opacity="0.12"/>
<stop offset="1" stop-color="#808080" stop-opacity="0.1"/>
</linearGradient>
</defs>
</svg>
