<svg width="20" height="20" viewBox="0 0 20 20" fill="none" xmlns="http://www.w3.org/2000/svg">
<path d="M19.0547 0.941646L15.1172 0.0315016C14.543 -0.101309 13.9532 0.195562 13.7188 0.738524L11.9024 4.97675C11.6876 5.47284 11.8321 6.05877 12.2501 6.40251L14.3555 8.12515C13.0274 10.8282 10.8282 13.0313 8.12124 14.3594L6.39861 12.254C6.05486 11.836 5.46893 11.6915 4.97285 11.9064L0.738524 13.7227C0.195562 13.9571 -0.101309 14.543 0.0315016 15.1172L0.93774 19.0508C1.06664 19.6094 1.55883 20 2.12913 20C11.9806 20 20 12.0235 20 2.12913C20 1.55883 19.6094 1.06664 19.0547 0.941646ZM2.15257 18.75L1.25414 14.8594L5.4494 13.0626L7.77359 15.9063C11.8204 14.0079 14.0118 11.8087 15.9024 7.7775L13.0587 5.45331L14.8555 1.25805L18.7461 2.15647C18.7383 11.3165 11.3126 18.7383 2.15257 18.75Z" fill="white"/>
</svg>
