<svg width="81" height="7" viewBox="0 0 81 7" fill="none" xmlns="http://www.w3.org/2000/svg">
<path fill-rule="evenodd" clip-rule="evenodd" d="M79.6796 4.60229C80.38 4.58153 80.9699 5.09367 80.9994 5.75806C81.0215 6.41553 80.4759 6.96918 79.7681 6.99686C77.4604 7.07299 76.2586 5.74421 75.0199 4.38083C74.1352 3.405 73.2283 2.40842 71.8791 2.40842C70.5298 2.40842 69.623 3.41192 68.7383 4.38083C67.507 5.73729 66.3126 7.05915 64.0343 6.99686C61.7561 7.05223 60.5617 5.73729 59.3304 4.38083C58.4457 3.405 57.5388 2.40842 56.1896 2.40842C54.8403 2.40842 53.9334 3.41192 53.0487 4.38083C51.8174 5.73729 50.623 7.05915 48.3448 6.99686C46.0666 7.05223 44.8721 5.73729 43.6409 4.38083C42.7561 3.405 41.8492 2.40842 40.5 2.40842C39.1508 2.40842 38.2439 3.41192 37.3591 4.38083C36.1279 5.73729 34.9335 7.05915 32.6553 6.99686C30.377 7.05223 29.1826 5.73729 27.9513 4.38083C27.0666 3.405 26.1597 2.40842 24.8105 2.40842C23.4612 2.40842 22.5544 3.41192 21.6696 4.38083C20.4383 5.73729 19.2439 7.05915 16.9657 6.99686C14.6875 7.05223 13.4931 5.73729 12.2618 4.38083C11.377 3.405 10.4702 2.40842 9.12092 2.40842C7.77168 2.40842 6.8648 3.41192 5.98006 4.38083C4.74141 5.75113 3.53225 7.07299 1.2319 6.99686C0.531478 6.9761 -0.0214776 6.42245 0.000641128 5.75806C0.0227598 5.10059 0.612621 4.58153 1.32042 4.60229C2.39686 4.6369 3.20789 3.74413 4.04102 2.83059C5.30179 1.43952 6.60676 0 9.12092 0C11.6351 0 12.9327 1.4326 14.2009 2.83059C15.034 3.74413 15.8376 4.6369 16.9141 4.60229H16.9215H16.9436H16.9509H16.9731H16.9805H17.0026H17.0099C18.0864 4.62998 18.89 3.74413 19.7232 2.83059C20.9839 1.43952 22.2889 0 24.8031 0C27.3173 0 28.6149 1.4326 29.883 2.83059C30.7162 3.74413 31.5198 4.6369 32.5963 4.60229H32.6036H32.6257H32.6331H32.6553H32.6626H32.6847H32.6921C33.7686 4.62998 34.5722 3.74413 35.4053 2.83059C36.6661 1.43952 37.9711 0 40.4853 0C42.9994 0 44.297 1.4326 45.5652 2.83059C46.3983 3.74413 47.202 4.6369 48.2784 4.60229H48.2858H48.3079H48.3153H48.3374H48.3448H48.3669H48.3743C49.4507 4.62998 50.2544 3.74413 51.0875 2.83059C52.3483 1.43952 53.6533 0 56.1674 0C58.6816 0 59.9792 1.4326 61.2474 2.83059C62.0805 3.74413 62.8841 4.6369 63.9606 4.60229H63.968H63.9901H63.9974H64.0196H64.027H64.049H64.0564C65.1329 4.62998 65.9365 3.74413 66.7697 2.83059C68.0304 1.43952 69.3354 0 71.8496 0C74.3638 0 75.6614 1.4326 76.9295 2.83059C77.7922 3.75105 78.6032 4.64382 79.6796 4.60229Z" fill="url(#paint0_linear)"/>
<defs>
<linearGradient id="paint0_linear" x1="0.0156818" y1="3.50085" x2="81.0024" y2="3.50085" gradientUnits="userSpaceOnUse">
<stop stop-color="#1BEDDA"/>
<stop offset="1" stop-color="#24CCD8"/>
</linearGradient>
</defs>
</svg>
