<svg width="20" height="20" viewBox="0 0 20 20" fill="none" xmlns="http://www.w3.org/2000/svg">
<path d="M19.4961 11.745L18.1301 10.9859C18.216 10.3312 18.216 9.66878 18.1301 9.01413L19.4961 8.25498C19.8973 8.03207 20.0908 7.57344 19.9589 7.14606C19.4891 5.62392 18.653 4.2538 17.5488 3.13013C17.229 2.80473 16.7186 2.73352 16.3157 2.95747L14.9517 3.71545C14.4061 3.31577 13.8102 2.9841 13.1781 2.72836V1.21166C13.1781 0.762869 12.8576 0.372788 12.4038 0.269441C10.8269 -0.0897935 9.1734 -0.0898338 7.59618 0.269441C7.14248 0.372788 6.8219 0.762829 6.8219 1.21166V2.72836C6.18984 2.98409 5.59393 3.31576 5.04834 3.71545L3.68434 2.95747C3.28133 2.73352 2.77099 2.80473 2.45125 3.13013C1.34704 4.2538 0.510891 5.62397 0.041144 7.14606C-0.0907655 7.57344 0.102721 8.03203 0.503854 8.25498L1.86987 9.01413C1.78399 9.66878 1.78399 10.3312 1.86987 10.9859L0.503854 11.745C0.102721 11.9679 -0.0907655 12.4266 0.041144 12.8539C0.510891 14.376 1.34704 15.7462 2.45125 16.8699C2.77103 17.1953 3.28137 17.2665 3.68434 17.0426L5.04834 16.2846C5.59393 16.6843 6.18984 17.0159 6.8219 17.2716V18.7883C6.8219 19.2371 7.14243 19.6272 7.59618 19.7306C9.1731 20.0898 10.8266 20.0898 12.4038 19.7306C12.8575 19.6272 13.1781 19.2372 13.1781 18.7883V17.2716C13.8101 17.0159 14.4061 16.6843 14.9517 16.2846L16.3157 17.0426C16.7186 17.2665 17.229 17.1953 17.5488 16.8699C18.653 15.7462 19.4891 14.376 19.9589 12.8539C20.0908 12.4266 19.8973 11.968 19.4961 11.745ZM16.7533 15.7959L14.8134 14.7176C13.6829 15.6479 13.282 15.882 11.8376 16.3733V18.5297C10.6253 18.7704 9.37469 18.7704 8.16236 18.5297V16.3733C6.75399 15.8943 6.34624 15.6718 5.18658 14.7176L3.24673 15.7959C2.42109 14.9051 1.79363 13.8608 1.40657 12.733L3.34726 11.6548C3.07351 10.2267 3.07339 9.77401 3.34726 8.34518L1.40657 7.26695C1.79363 6.13917 2.42113 5.09481 3.24673 4.20368L5.18658 5.28271C6.33338 4.33779 6.73912 4.11074 8.16236 3.6267V1.47033C9.37465 1.2292 10.6254 1.2292 11.8376 1.47033V3.62674C13.261 4.11082 13.6667 4.33791 14.8134 5.28275L16.7533 4.20372C17.5789 5.09481 18.2064 6.13917 18.5934 7.26699L16.6527 8.34522C16.9265 9.77369 16.9266 10.226 16.6527 11.6549L18.5934 12.7331C18.2064 13.8608 17.5789 14.9052 16.7533 15.7959ZM10 6.12905C7.78259 6.12905 5.97862 7.86554 5.97862 10C5.97862 12.1345 7.78259 13.871 10 13.871C12.2174 13.871 14.0214 12.1345 14.0214 10C14.0214 7.86554 12.2174 6.12905 10 6.12905ZM10 12.5807C8.52172 12.5807 7.31908 11.423 7.31908 10C7.31908 8.57703 8.52172 7.41937 10 7.41937C11.4783 7.41937 12.6809 8.57703 12.6809 10C12.6809 11.423 11.4783 12.5807 10 12.5807Z" fill="white"/>
</svg>
